<svg xmlns="http://www.w3.org/2000/svg" version="1.1" xmlns:xlink="http://www.w3.org/1999/xlink" xmlnsSvgjs="http://svgjs.dev/svgjs" width="1000" height="1000" viewBox="0 0 1000 1000"><rect width="1000" height="1000" fill="#ffffff"></rect><g transform="matrix(0.7,0,0,0.7,149.57575757575756,333.1233594004257)"><svg viewBox="0 0 396 189" data-background-color="#0718c4" preserveAspectRatio="xMidYMid meet" height="477" width="1000" xmlns="http://www.w3.org/2000/svg" xmlnsXlink="http://www.w3.org/1999/xlink"><defs></defs><g id="tight-bounds" transform="matrix(1,0,0,1,0.2400000000000091,-0.04152275828178631)"><svg viewBox="0 0 395.52 189.08304474872835" height="189.08304474872835" width="395.52"><g><svg viewBox="0 0 397.4975999999999 190.02845997247198" height="189.08304474872835" width="395.52"><g><rect width="397.4975999999999" height="4.714000747342867" x="0" y="120.70150172678751" fill="#000000" opacity="1" stroke-width="0" stroke="transparent" fill-opacity="1" class="rect-o-0" data-fill-palette-color="primary" rx="1%" id="o-0" data-palette-color="#8dbdff"></rect></g><g transform="matrix(1,0,0,1,0.9887999999999693,137.755818566651)"><svg viewBox="0 0 395.52 52.272641405820984" height="52.272641405820984" width="395.52"><g><svg viewBox="0 0 395.52 52.272641405820984" height="52.272641405820984" width="395.52"><g><svg viewBox="0 0 395.52 52.272641405820984" height="52.272641405820984" width="395.52"><g transform="matrix(1,0,0,1,0,0)"><svg width="395.52" viewBox="4.650000095367432 -35.5 268.4800109863281 36.099998474121094" height="52.272641405820984" data-palette-color="#8dbdff"><g class="undefined-text-0" data-fill-palette-color="primary" id="text-0"><path d="M4.65 0L4.65-34.9 19-34.9Q23.35-34.9 25.83-32.45 28.3-30 28.3-25.9L28.3-25.9Q28.3-23.95 27.75-22.6 27.2-21.25 26.35-20.38 25.5-19.5 24.5-19.07 23.5-18.65 22.65-18.5L22.65-18.5 22.65-18.2Q23.6-18.15 24.78-17.7 25.95-17.25 27-16.28 28.05-15.3 28.78-13.78 29.5-12.25 29.5-10.1L29.5-10.1Q29.5-7.95 28.83-6.1 28.15-4.25 26.95-2.9 25.75-1.55 24.1-0.78 22.45 0 20.5 0L20.5 0 4.65 0ZM8.85-16.2L8.85-3.7 19.2-3.7Q21.9-3.7 23.45-5.08 25-6.45 25-9.1L25-9.1 25-10.8Q25-13.45 23.45-14.83 21.9-16.2 19.2-16.2L19.2-16.2 8.85-16.2ZM8.85-31.2L8.85-19.8 18.5-19.8Q21-19.8 22.4-21.05 23.8-22.3 23.8-24.65L23.8-24.65 23.8-26.35Q23.8-28.7 22.4-29.95 21-31.2 18.5-31.2L18.5-31.2 8.85-31.2ZM41.5-15L41.5 0 37.3 0 37.3-34.9 51.2-34.9Q55.8-34.9 58.37-32.35 60.95-29.8 60.95-25L60.95-25Q60.95-21.15 59.17-18.68 57.4-16.2 53.95-15.4L53.95-15.4 61.95 0 57.2 0 49.65-15 41.5-15ZM41.5-18.6L51.2-18.6Q53.7-18.6 55.07-19.9 56.45-21.2 56.45-23.6L56.45-23.6 56.45-26.2Q56.45-28.6 55.07-29.9 53.7-31.2 51.2-31.2L51.2-31.2 41.5-31.2 41.5-18.6ZM95.55 0L91.15 0 87.65-10.3 73.55-10.3 70.05 0 65.8 0 78-34.9 83.35-34.9 95.55 0ZM86.6-14L80.7-31 80.45-31 74.55-14 86.6-14ZM113.69 0L99.69 0 99.69-3.5 104.59-3.5 104.59-31.4 99.69-31.4 99.69-34.9 113.69-34.9 113.69-31.4 108.79-31.4 108.79-3.5 113.69-3.5 113.69 0ZM142.54 0L129.79-21.3 125.59-29.05 125.44-29.05 125.44 0 121.34 0 121.34-34.9 126.19-34.9 138.94-13.6 143.14-5.85 143.29-5.85 143.29-34.9 147.39-34.9 147.39 0 142.54 0Z" fill="#000000" data-fill-palette-color="primary"></path><path d="M164.34 0.6L164.34 0.6Q157.69 0.6 153.99-3.93 150.29-8.45 150.29-17.25L150.29-17.25Q150.29-26.05 153.99-30.78 157.69-35.5 164.34-35.5L164.34-35.5Q168.74-35.5 171.72-33.5 174.69-31.5 176.34-27.85L176.34-27.85 172.94-25.8Q171.89-28.5 169.74-30.13 167.59-31.75 164.34-31.75L164.34-31.75Q162.09-31.75 160.32-30.9 158.54-30.05 157.32-28.48 156.09-26.9 155.44-24.73 154.79-22.55 154.79-19.85L154.79-19.85 154.79-14.65Q154.79-9.25 157.29-6.2 159.79-3.15 164.34-3.15L164.34-3.15Q167.69-3.15 169.94-4.88 172.19-6.6 173.24-9.45L173.24-9.45 176.59-7.35Q174.94-3.65 171.84-1.53 168.74 0.6 164.34 0.6ZM209.34 0L204.94 0 201.44-10.3 187.34-10.3 183.84 0 179.59 0 191.79-34.9 197.14-34.9 209.34 0ZM200.39-14L194.49-31 194.24-31 188.34-14 200.39-14ZM219.34-15L219.34 0 215.14 0 215.14-34.9 229.04-34.9Q233.64-34.9 236.21-32.35 238.79-29.8 238.79-25L238.79-25Q238.79-21.15 237.01-18.68 235.23-16.2 231.79-15.4L231.79-15.4 239.79 0 235.04 0 227.48-15 219.34-15ZM219.34-18.6L229.04-18.6Q231.54-18.6 232.91-19.9 234.29-21.2 234.29-23.6L234.29-23.6 234.29-26.2Q234.29-28.6 232.91-29.9 231.54-31.2 229.04-31.2L229.04-31.2 219.34-31.2 219.34-18.6ZM247.13 0L247.13-34.9 258.83-34.9Q262.08-34.9 264.73-33.8 267.38-32.7 269.26-30.53 271.13-28.35 272.13-25.08 273.13-21.8 273.13-17.45L273.13-17.45Q273.13-13.1 272.13-9.83 271.13-6.55 269.26-4.38 267.38-2.2 264.73-1.1 262.08 0 258.83 0L258.83 0 247.13 0ZM251.33-3.7L258.83-3.7Q260.98-3.7 262.78-4.42 264.58-5.15 265.88-6.55 267.18-7.95 267.91-9.98 268.63-12 268.63-14.6L268.63-14.6 268.63-20.3Q268.63-22.9 267.91-24.93 267.18-26.95 265.88-28.35 264.58-29.75 262.78-30.48 260.98-31.2 258.83-31.2L258.83-31.2 251.33-31.2 251.33-3.7Z" fill="#000000" data-fill-palette-color="secondary"></path></g></svg></g></svg></g></svg></g></svg></g><g transform="matrix(1,0,0,1,110.15236785564599,0)"><svg viewBox="0 0 177.19286428870794 108.36118563426692" height="108.36118563426692" width="177.19286428870794"><g><svg xmlns="http://www.w3.org/2000/svg" xmlnsXlink="http://www.w3.org/1999/xlink" version="1.1" x="0" y="0" viewBox="2.8382954597473145 21.200000762939453 94.02435302734375 57.500003814697266" style="enableBackground:new 0 0 100 100;" xmlSpace="preserve" height="108.36118563426692" width="177.19286428870794" class="icon-icon-0" dataFillPaletteColor="accent" id="icon-0"><g fill="#8dbdff" dataFillPaletteColor="accent"><g fill="#8dbdff" dataFillPaletteColor="accent"><path d="M73 57.9c-0.1-1.4-0.4-2.8-1-4.2-0.7-1.6-1.6-3-2.9-4.2-1.2-1.2-2.7-2.2-4.2-2.9-3.3-1.4-7.1-1.4-10.4 0-1.1 0.4-2 1-2.9 1.7-2.2-2.8-5.6-4.5-9.2-4.5-4.6 0-8.5 2.6-10.5 6.4-5.9 0.5-10.4 5.3-10.5 11.2-0.9 0.4-1.7 1-2.5 1.7-1.7 1.7-2.7 3.9-2.7 6.3s0.8 4.8 2.5 6.5 4.1 2.8 6.5 2.8H72c5.7 0 10.3-5 10.3-10.7C82.3 62.9 78.2 58.5 73 57.9zM72 76.4h-3.5c1.3-1.3 2.2-3.2 2.2-5.2 0-0.1 0-0.1 0-0.2l0 0c0-1.6 1.3-2.9 2.9-2.9 0.6 0 1.1-0.5 1.1-1.1s-0.6-1-1.2-1c-1.5 0-2.8 0.7-3.7 1.7-1.2-2.3-3.7-3.9-6.5-3.9-0.6 0-1.1 0.5-1.1 1.1s0.5 1.1 1.1 1.1c2.9 0 5.2 2.3 5.2 5.2 0 2.9-2.3 5.2-5.2 5.2H44.9c-3 0-5.4-2.4-5.4-5.4s2.4-5.4 5.4-5.4c3.7 0 6.7-3 6.7-6.7 0-0.6-0.5-1.1-1.1-1.1s-1.1 0.5-1.1 1.1c0 2.5-2.1 4.6-4.6 4.6s-4.6-2.1-4.6-4.6c0-1.2 0.5-2.4 1.3-3.2 0.4-0.4 0.4-1.1 0-1.5s-1.1-0.4-1.5 0c-1.3 1.3-2 3-2 4.7 0 2.3 1.2 4.4 3 5.6-2.3 1.3-3.8 3.8-3.8 6.6 0 2.1 0.9 4.1 2.3 5.4h-6.9c-0.5-4-4-7.1-8.1-7.1-0.6 0-1.1 0.5-1.1 1.1s0.5 1.1 1.1 1.1c3 0 5.5 2.2 6 5h-5.3l0 0 0 0c-1.8 0-3.5-0.7-4.8-2s-2-3-2-4.8 0.7-3.5 2-4.8 3-2 4.8-2 3.5 0.7 4.8 2c0.4 0.4 1.1 0.4 1.5 0s0.4-1.1 0-1.5c-1.7-1.7-3.9-2.6-6.3-2.6-0.6 0-1.1 0.1-1.7 0.2 0.4-4.1 3.4-7.4 7.4-8.3-0.3 1-0.4 2.1-0.4 3.1 0 0.6 0.5 1.1 1.1 1.1s1.1-0.5 1.1-1.1c0-5.3 4.3-9.7 9.7-9.7 3 0 5.8 1.4 7.6 3.8-1.1 1.2-2 2.5-2.6 4-0.2 0.5 0 1.2 0.6 1.4 0.5 0.2 1.2 0 1.4-0.6 0.6-1.3 1.4-2.5 2.4-3.6 1-1 2.2-1.8 3.6-2.4 2.8-1.2 6-1.2 8.7 0 1.3 0.6 2.5 1.4 3.6 2.4 1 1 1.8 2.2 2.4 3.6 0.6 1.4 0.9 2.9 0.9 4.4 0 0.6 0.5 1.1 1.1 1.1 4.5 0 8.2 3.7 8.2 8.2C80.2 72.7 76.5 76.4 72 76.4z" fill="#000000" data-fill-palette-color="accent"></path><path d="M57 58c-2.5 2.5-2.5 6.6 0 9.1 0.2 0.2 0.5 0.3 0.8 0.3s0.5-0.1 0.8-0.3c0.4-0.4 0.4-1.1 0-1.5-1.7-1.7-1.7-4.4 0-6.1 1.7-1.7 4.4-1.7 6.1 0 0.4 0.4 1.1 0.4 1.5 0s0.4-1.1 0-1.5C63.5 55.5 59.5 55.5 57 58z" fill="#000000" data-fill-palette-color="accent"></path><path d="M33.7 35.7c0.2 0.4 0.6 0.6 1 0.6 0.2 0 0.3 0 0.4-0.1 0.5-0.2 0.8-0.9 0.5-1.4l-4-8.6c-0.2-0.5-0.9-0.8-1.4-0.5-0.5 0.2-0.8 0.9-0.5 1.4L33.7 35.7z" fill="#000000" data-fill-palette-color="accent"></path><path d="M13.8 54.9l-9.6-3.2c-0.6-0.2-1.2 0.1-1.3 0.7C2.7 53 3 53.6 3.6 53.7l9.6 3.2c0.1 0 0.2 0.1 0.3 0.1 0.4 0 0.9-0.3 1-0.7C14.7 55.7 14.4 55.1 13.8 54.9z" fill="#000000" data-fill-palette-color="accent"></path><path d="M49.8 32.9L49.8 32.9c0.6 0 1.1-0.5 1.1-1.1v-9.5c0-0.6-0.5-1.1-1.1-1.1l0 0c-0.6 0-1.1 0.5-1.1 1.1v9.5C48.7 32.4 49.2 32.9 49.8 32.9z" fill="#000000" data-fill-palette-color="accent"></path><path d="M21.2 44.6c0.2 0.2 0.4 0.3 0.7 0.3 0.3 0 0.6-0.1 0.8-0.4 0.4-0.4 0.3-1.1-0.1-1.5l-7.3-6.4c-0.4-0.4-1.1-0.3-1.5 0.1-0.4 0.4-0.3 1.1 0.1 1.5L21.2 44.6z" fill="#000000" data-fill-palette-color="accent"></path><path d="M77.7 42.5c0.3 0 0.5-0.1 0.7-0.3l7.3-7c0.4-0.4 0.4-1.1 0-1.5s-1.1-0.4-1.5 0l-7.3 7c-0.4 0.4-0.4 1.1 0 1.5C77.1 42.4 77.4 42.5 77.7 42.5z" fill="#000000" data-fill-palette-color="accent"></path><path d="M64.3 35.9c0.1 0.1 0.3 0.1 0.4 0.1 0.4 0 0.8-0.2 1-0.6l3.9-8.6c0.2-0.5 0-1.2-0.5-1.4-0.5-0.2-1.2 0-1.4 0.5l-3.9 8.6C63.5 35 63.8 35.6 64.3 35.9z" fill="#000000" data-fill-palette-color="accent"></path><path d="M96.8 51.4c-0.2-0.6-0.8-0.8-1.4-0.6l-9.5 3.4c-0.6 0.2-0.8 0.8-0.6 1.4 0.2 0.4 0.6 0.7 1 0.7 0.1 0 0.2 0 0.4-0.1l9.5-3.4C96.7 52.5 97 51.9 96.8 51.4z" fill="#000000" data-fill-palette-color="accent"></path></g></g></svg></g></svg></g><g></g></svg></g></svg><rect width="395.52" height="189.08304474872835" fill="none" stroke="none" visibility="hidden"></rect></g></svg></g></svg>